<svg width="148" height="27" viewBox="0 0 148 27" fill="none" xmlns="http://www.w3.org/2000/svg">
<path d="M4.36328 23.2402H16.4922V26H0.970703V0.40625H4.36328V23.2402ZM27.7246 26.3516C25.1465 26.3516 23.0488 25.5078 21.4316 23.8203C19.8145 22.1211 19.0059 19.8535 19.0059 17.0176V16.4199C19.0059 14.5332 19.3633 12.8516 20.0781 11.375C20.8047 9.88672 21.8125 8.72656 23.1016 7.89453C24.4023 7.05078 25.8086 6.62891 27.3203 6.62891C29.793 6.62891 31.7148 7.44336 33.0859 9.07227C34.457 10.7012 35.1426 13.0332 35.1426 16.0684V17.4219H22.2578C22.3047 19.2969 22.8496 20.8145 23.8926 21.9746C24.9473 23.123 26.2832 23.6973 27.9004 23.6973C29.0488 23.6973 30.0215 23.4629 30.8184 22.9941C31.6152 22.5254 32.3125 21.9043 32.9102 21.1309L34.8965 22.6777C33.3027 25.127 30.9121 26.3516 27.7246 26.3516ZM27.3203 9.30078C26.0078 9.30078 24.9062 9.78125 24.0156 10.7422C23.125 11.6914 22.5742 13.0273 22.3633 14.75H31.8906V14.5039C31.7969 12.8516 31.3516 11.5742 30.5547 10.6719C29.7578 9.75781 28.6797 9.30078 27.3203 9.30078ZM49.9961 20.9551C49.9961 20.0762 49.6621 19.3965 48.9941 18.916C48.3379 18.4238 47.1836 18.002 45.5312 17.6504C43.8906 17.2988 42.584 16.877 41.6113 16.3848C40.6504 15.8926 39.9355 15.3066 39.4668 14.627C39.0098 13.9473 38.7812 13.1387 38.7812 12.2012C38.7812 10.6426 39.4375 9.32422 40.75 8.24609C42.0742 7.16797 43.7617 6.62891 45.8125 6.62891C47.9688 6.62891 49.7148 7.18555 51.0508 8.29883C52.3984 9.41211 53.0723 10.8359 53.0723 12.5703H49.8027C49.8027 11.6797 49.4219 10.9121 48.6602 10.2676C47.9102 9.62305 46.9609 9.30078 45.8125 9.30078C44.6289 9.30078 43.7031 9.55859 43.0352 10.0742C42.3672 10.5898 42.0332 11.2637 42.0332 12.0957C42.0332 12.8809 42.3438 13.4727 42.9648 13.8711C43.5859 14.2695 44.7051 14.6504 46.3223 15.0137C47.9512 15.377 49.2695 15.8105 50.2773 16.3145C51.2852 16.8184 52.0293 17.4277 52.5098 18.1426C53.002 18.8457 53.248 19.707 53.248 20.7266C53.248 22.4258 52.5684 23.791 51.209 24.8223C49.8496 25.8418 48.0859 26.3516 45.918 26.3516C44.3945 26.3516 43.0469 26.082 41.875 25.543C40.7031 25.0039 39.7832 24.2539 39.1152 23.293C38.459 22.3203 38.1309 21.2715 38.1309 20.1465H41.3828C41.4414 21.2363 41.875 22.1035 42.6836 22.748C43.5039 23.3809 44.582 23.6973 45.918 23.6973C47.1484 23.6973 48.1328 23.4512 48.8711 22.959C49.6211 22.4551 49.9961 21.7871 49.9961 20.9551ZM66.4668 21.5176L73.7793 0.40625H77.4707L67.9785 26H64.9902L55.5156 0.40625H59.1895L66.4668 21.5176ZM89.0723 9.89844C88.5801 9.81641 88.0469 9.77539 87.4727 9.77539C85.3398 9.77539 83.8926 10.6836 83.1309 12.5V26H79.8789V6.98047H83.043L83.0957 9.17773C84.1621 7.47852 85.6738 6.62891 87.6309 6.62891C88.2637 6.62891 88.7441 6.71094 89.0723 6.875V9.89844ZM103.117 26C102.93 25.625 102.777 24.957 102.66 23.9961C101.148 25.5664 99.3438 26.3516 97.2461 26.3516C95.3711 26.3516 93.8301 25.8242 92.623 24.7695C91.4277 23.7031 90.8301 22.3555 90.8301 20.7266C90.8301 18.7461 91.5801 17.2109 93.0801 16.1211C94.5918 15.0195 96.7129 14.4688 99.4434 14.4688H102.607V12.9746C102.607 11.8379 102.268 10.9355 101.588 10.2676C100.908 9.58789 99.9062 9.24805 98.582 9.24805C97.4219 9.24805 96.4492 9.54102 95.6641 10.127C94.8789 10.7129 94.4863 11.4219 94.4863 12.2539H91.2168C91.2168 11.3047 91.5508 10.3906 92.2188 9.51172C92.8984 8.62109 93.8125 7.91797 94.9609 7.40234C96.1211 6.88672 97.3926 6.62891 98.7754 6.62891C100.967 6.62891 102.684 7.17969 103.926 8.28125C105.168 9.37109 105.812 10.877 105.859 12.7988V21.5527C105.859 23.2988 106.082 24.6875 106.527 25.7188V26H103.117ZM97.7207 23.5215C98.7402 23.5215 99.707 23.2578 100.621 22.7305C101.535 22.2031 102.197 21.5176 102.607 20.6738V16.7715H100.059C96.0742 16.7715 94.082 17.9375 94.082 20.2695C94.082 21.2891 94.4219 22.0859 95.1016 22.6602C95.7812 23.2344 96.6543 23.5215 97.7207 23.5215ZM120.15 9.89844C119.658 9.81641 119.125 9.77539 118.551 9.77539C116.418 9.77539 114.971 10.6836 114.209 12.5V26H110.957V6.98047H114.121L114.174 9.17773C115.24 7.47852 116.752 6.62891 118.709 6.62891C119.342 6.62891 119.822 6.71094 120.15 6.875V9.89844ZM126.689 26H123.438V6.98047H126.689V26ZM123.174 1.93555C123.174 1.4082 123.332 0.962891 123.648 0.599609C123.977 0.236328 124.457 0.0546875 125.09 0.0546875C125.723 0.0546875 126.203 0.236328 126.531 0.599609C126.859 0.962891 127.023 1.4082 127.023 1.93555C127.023 2.46289 126.859 2.90234 126.531 3.25391C126.203 3.60547 125.723 3.78125 125.09 3.78125C124.457 3.78125 123.977 3.60547 123.648 3.25391C123.332 2.90234 123.174 2.46289 123.174 1.93555ZM143.652 26C143.465 25.625 143.312 24.957 143.195 23.9961C141.684 25.5664 139.879 26.3516 137.781 26.3516C135.906 26.3516 134.365 25.8242 133.158 24.7695C131.963 23.7031 131.365 22.3555 131.365 20.7266C131.365 18.7461 132.115 17.2109 133.615 16.1211C135.127 15.0195 137.248 14.4688 139.979 14.4688H143.143V12.9746C143.143 11.8379 142.803 10.9355 142.123 10.2676C141.443 9.58789 140.441 9.24805 139.117 9.24805C137.957 9.24805 136.984 9.54102 136.199 10.127C135.414 10.7129 135.021 11.4219 135.021 12.2539H131.752C131.752 11.3047 132.086 10.3906 132.754 9.51172C133.434 8.62109 134.348 7.91797 135.496 7.40234C136.656 6.88672 137.928 6.62891 139.311 6.62891C141.502 6.62891 143.219 7.17969 144.461 8.28125C145.703 9.37109 146.348 10.877 146.395 12.7988V21.5527C146.395 23.2988 146.617 24.6875 147.062 25.7188V26H143.652ZM138.256 23.5215C139.275 23.5215 140.242 23.2578 141.156 22.7305C142.07 22.2031 142.732 21.5176 143.143 20.6738V16.7715H140.594C136.609 16.7715 134.617 17.9375 134.617 20.2695C134.617 21.2891 134.957 22.0859 135.637 22.6602C136.316 23.2344 137.189 23.5215 138.256 23.5215Z" fill="black"/>
</svg>
